# xmcd
#
# Track frame offsets:
#	150
#	27774
#	52194
#	75663
#	97709
#	120995
#	144054
#	163990
#	188280
#	206884
#
# Disc length: 3041 seconds
#
# Revision: 1
# Processed by: cddbd v1.5.1PL0 Copyright (c) Steve Scherf et al.
# Submitted via: audiograbber 1.83.01
#
DISCID=750bdf0a
DTITLE=Ulpiano Vergara - A Otro Nivel
DYEAR=2005
DGENRE=Folklore
TTITLE0=Aventuras Traicioneras
TTITLE1=De Nada Vale Llorar
TTITLE2=Mil Maneras De Olvidarte
TTITLE3=Cuando Vivas Conmigo
TTITLE4=No Te Voy A Defraudar
TTITLE5=Decite A Amarme
TTITLE6=Jugaste Con Mi Vida
TTITLE7=Sensasion Perturbadora
TTITLE8=Reina Nacional De La Pollera
TTITLE9=Nadie Quiere A Nadie
EXTD=
EXTT0=
EXTT1=
EXTT2=
EXTT3=
EXTT4=
EXTT5=
EXTT6=
EXTT7=
EXTT8=
EXTT9=
PLAYORDER=
